<svg width="1344" height="1417" viewBox="0 0 1344 1417" fill="none" xmlns="http://www.w3.org/2000/svg">
<g filter="url(#filter0_d_341_123)">
<mask id="path-1-inside-1_341_123" fill="white">
<path d="M1319 672C1319 1029.33 1029.33 1319 672 1319C314.672 1319 25 1029.33 25 672C25 314.672 314.672 25 672 25C1029.33 25 1319 314.672 1319 672ZM141.944 672C141.944 964.742 379.258 1202.06 672 1202.06C964.742 1202.06 1202.06 964.742 1202.06 672C1202.06 379.258 964.742 141.944 672 141.944C379.258 141.944 141.944 379.258 141.944 672Z"/>
</mask>
<path d="M1319 672C1319 1029.33 1029.33 1319 672 1319C314.672 1319 25 1029.33 25 672C25 314.672 314.672 25 672 25C1029.33 25 1319 314.672 1319 672ZM141.944 672C141.944 964.742 379.258 1202.06 672 1202.06C964.742 1202.06 1202.06 964.742 1202.06 672C1202.06 379.258 964.742 141.944 672 141.944C379.258 141.944 141.944 379.258 141.944 672Z" stroke="white" stroke-width="242" shape-rendering="crispEdges" mask="url(#path-1-inside-1_341_123)"/>
</g>
<mask id="path-2-inside-2_341_123" fill="white">
<path d="M1319 672C1319 787.533 1288.06 900.959 1229.41 1000.49C1170.75 1100.03 1086.51 1182.04 985.436 1238.01C884.365 1293.98 770.15 1321.86 654.659 1318.77C539.167 1315.67 426.611 1281.71 328.684 1220.4C230.758 1159.1 151.033 1072.69 97.7926 970.152C44.5523 867.618 19.7386 752.697 25.9296 637.33C32.1206 521.963 69.0903 410.357 132.998 314.109C196.906 217.861 285.42 140.481 389.345 90.0077L440.434 195.202C355.293 236.552 282.778 299.946 230.421 378.797C178.065 457.649 147.777 549.082 142.705 643.596C137.633 738.111 157.962 832.26 201.579 916.262C245.197 1000.26 310.511 1071.05 390.738 1121.28C470.965 1171.5 563.176 1199.33 657.793 1201.87C752.41 1204.4 845.98 1181.56 928.783 1135.7C1011.59 1089.85 1080.6 1022.66 1128.66 941.119C1176.71 859.575 1202.06 766.651 1202.06 672H1319Z"/>
</mask>
<path d="M1319 672C1319 787.533 1288.06 900.959 1229.41 1000.49C1170.75 1100.03 1086.51 1182.04 985.436 1238.01C884.365 1293.98 770.15 1321.86 654.659 1318.77C539.167 1315.67 426.611 1281.71 328.684 1220.4C230.758 1159.1 151.033 1072.69 97.7926 970.152C44.5523 867.618 19.7386 752.697 25.9296 637.33C32.1206 521.963 69.0903 410.357 132.998 314.109C196.906 217.861 285.42 140.481 389.345 90.0077L440.434 195.202C355.293 236.552 282.778 299.946 230.421 378.797C178.065 457.649 147.777 549.082 142.705 643.596C137.633 738.111 157.962 832.26 201.579 916.262C245.197 1000.26 310.511 1071.05 390.738 1121.28C470.965 1171.5 563.176 1199.33 657.793 1201.87C752.41 1204.4 845.98 1181.56 928.783 1135.7C1011.59 1089.85 1080.6 1022.66 1128.66 941.119C1176.71 859.575 1202.06 766.651 1202.06 672H1319Z" stroke="#5ECD40" stroke-width="242" mask="url(#path-2-inside-2_341_123)"/>
<circle cx="672" cy="672" r="659.5" stroke="black" stroke-width="25"/>
<circle cx="672" cy="672" r="532.5" stroke="black" stroke-width="25"/>
<defs>
<filter id="filter0_d_341_123" x="21" y="25" width="1302" height="1392" filterUnits="userSpaceOnUse" color-interpolation-filters="sRGB">
<feFlood flood-opacity="0" result="BackgroundImageFix"/>
<feColorMatrix in="SourceAlpha" type="matrix" values="0 0 0 0 0 0 0 0 0 0 0 0 0 0 0 0 0 0 127 0" result="hardAlpha"/>
<feOffset dy="94"/>
<feGaussianBlur stdDeviation="2"/>
<feComposite in2="hardAlpha" operator="out"/>
<feColorMatrix type="matrix" values="0 0 0 0 0 0 0 0 0 0 0 0 0 0 0 0 0 0 1 0"/>
<feBlend mode="normal" in2="BackgroundImageFix" result="effect1_dropShadow_341_123"/>
<feBlend mode="normal" in="SourceGraphic" in2="effect1_dropShadow_341_123" result="shape"/>
</filter>
</defs>
</svg>
